<svg xmlns="http://www.w3.org/2000/svg" viewBox="0 0 776.88 862.95">
  <defs>
    <style>.cls-1{opacity:0.6;}.cls-2{fill:#a076f9;}.cls-3{fill:#6420aa;}</style>
  </defs>
  <g id="Layer_2" data-name="Layer 2">
    <g id="Layer_1-2" data-name="Layer 1">
      <g class="cls-1">
        <path class="cls-2" d="M705.74,162.53C648.67,107.39,578.18,101.44,548.84,99,404.84,86.81,303.48,186,287.77,201.91,207,283.55,190.7,380.47,187.34,416.73c-7.46,80.52,9.42,161.88,38.47,237.35,23.36,60.67,55.32,119.25,102.33,164.16,18.69,17.85,37.16,26.49,51.33,32.18,16,6.43,42,16.88,74.68,10.57,30.93-6,50.56-23.68,58.71-31.22,4.28-4,27.45-25.52,37.33-60.64,12.1-43-.62-82.25-13.31-112.82C485.18,531.73,392.49,451.38,398.43,445c4.26-4.55,44.45,44,113.28,63.05,76.51,21.16,142.68-10.41,152.53-15.29C678.89,485.52,739,455.65,765.12,388,797.25,304.86,758.92,213.9,705.74,162.53Z"/>
      </g>
      <path class="cls-3" d="M442,27.75c-69.12-39-138.83-27-167.85-22C131.73,30.17,58.59,151.7,47.39,171c-57.64,99.33-49,197.24-43.16,233.17,13,79.81,49.85,154.31,97,220,37.87,52.85,83.54,101.51,140.34,133.14,22.57,12.58,42.63,16.3,57.78,18.24,17.11,2.19,44.93,5.76,74.93-8.56,28.43-13.57,43-35.64,49-45,3.14-4.91,20.14-31.61,20.87-68.08.89-44.66-21.29-79.45-41.27-105.84-81.38-107.56-191.3-162-187.15-169.67,3-5.48,54.09,31.4,125.5,32.51,79.37,1.24,135.47-46,143.77-53.16,12.35-10.71,63-54.74,71.28-126.76C566.38,142.48,506.4,64.09,442,27.75Z"/>
    </g>
  </g>
</svg>

